<?xml version="1.0" encoding="utf-8"?>
<!-- Generator: Adobe Illustrator 18.0.0, SVG Export Plug-In . SVG Version: 6.00 Build 0)  -->
<!DOCTYPE svg PUBLIC "-//W3C//DTD SVG 1.1//EN" "http://www.w3.org/Graphics/SVG/1.1/DTD/svg11.dtd">
<svg version="1.1" xmlns="http://www.w3.org/2000/svg" xmlns:xlink="http://www.w3.org/1999/xlink" x="0px" y="0px"
	 viewBox="0 0 117.2 31.5" enable-background="new 0 0 117.2 31.5" xml:space="preserve">
<g id="tooth">
	<path fill="#91C4F9" d="M3.5,13.5c0,0-0.3-2-0.2-2.7s0.3-1.2,0.3-1.2s0.5-1,1.6-1.3s2.9,0.6,2.9,0.6l1.4,0.7c0,0,1.2,0.8,2.8,1
		l0.5,0c0,0-0.3,0.4-0.9,0.6c-0.3,0.1-0.1,0.1-1.2,0.2c0,0-0.5,0-1.5-0.4s-1.4-0.5-1.4-0.5s-1-0.3-1.3-0.4l-0.5,0
		c0,0-0.5,0.1-0.9,0.7c0,0-0.2,0.2-0.1,1.3c0,0,0.1,0.7,0.3,1.3c0,0,0.2,0.7,1.6,4.3L5,17.4C5,17.4,4.3,15.9,3.5,13.5z"/>
	<path fill="#91C4F9" d="M10.4,12.1c0,0,1.4-0.1,2.9-1.1S16,9.3,16,9.3s0.8-0.5,1.3-0.6c0.5-0.1,0.7-0.2,0.9-0.1
		c0,0,1.1-0.1,1.8,0.6c0,0,0.4,0.3,0.6,1.6v0.6c0,0,0.1,0.3-0.1,0.7c0,0-0.2,0.7-2.1,2.9c0,0,0.5-2.4,0.5-2.6c0,0,0.1-1.2-0.5-1.6
		c-0.5-0.5-1-0.4-1-0.4s0-0.1-3.7,1.6c0,0-0.7,0.3-1.8,0.4C11.9,12.4,10.9,12.4,10.4,12.1z"/>
	<path fill="#91C4F9" d="M6.8,20.8L8,21.1c0,0-0.5,4.9,0.2,6.9c0,0,0.3,0.5,0.3,0.4c0,0,0.7-4.4,2.1-6c0,0,0.4-0.5,1.3-0.6h0.5
		c0,0-0.9,0.4-1.2,1.1l-0.6,1.3l-0.4,1.3L10,26.9l-0.2,1.4l-0.2,1.3c0,0-0.1,1.2-0.7,1.4c0,0-0.5,0.1-0.9-0.7l-0.3-0.8l-0.4-1.3
		l-0.3-1.3C6.8,26.9,6.5,24.5,6.8,20.8z"/>
	<path fill="#91C4F9" d="M11.4,23c0,0,0.6-0.8,1.2-0.8c0,0,0.4-0.1,0.9,0.6c0.5,0.6,0.7,1.4,0.7,1.4s1.2,3.7,1.6,3.8
		c0,0,0.3,0.2,0.5-1.2c0.2-1.4,0-5,0-5l1.2-0.3c0,0,0.2,3.8-0.4,6.6l-0.3,1.3c0,0-0.2,0.9-1,1.2c0,0-0.5,0.3-1-1.2l-1.3-4.7
		c0,0-0.6-1.5-1-1.7C12,23,11.4,23,11.4,23z"/>
	<path fill="#C7F869" d="M0.2,16.6c0,0,3.2,1.2,6,1.7c2.8,0.5,3,0.4,7,0.2c0.2,0,1.9-0.5,2-0.5l1.6-0.5c0,0,0,0,0,0
		c0.1,0,1-0.4,2.2-1.2c1.3-0.8,2.3-2.4,2.3-2.4s1-1.8,0.9-2.9s-0.1-1.6-1.1-2.9c0,0-0.2-0.2-1.1-0.8c0,0,1.3,1.6,1.2,3.4
		s-0.9,2.9-0.9,2.9s-0.9,1.3-3.1,2.6c0,0-1.4,0.8-4.1,1.4l-2.4,0.3c0,0-1.4,0.2-3.8,0C4.7,17.9,0.2,16.6,0.2,16.6z"/>
	<path fill="#C7F869" d="M0,17.3l5.2,1.8l4,0.8l4,0.1c0,0,2.4,0,4-0.7c1.6-0.7,2.2-1,2.2-1l1.6-1.2c0,0,0.9-0.6,1.2-1.5
		c0-0.1,0.1-0.3,0.1-0.4c0.1-0.3,0.3-0.6,0.2-1.3c-0.1-0.9-0.3-1.3-0.3-1.3s0.2,1.6-1.8,3.5s-3.4,2.3-8.7,3.1l-4-0.1
		C7.9,19.1,4.4,18.9,0,17.3z"/>
	<path fill="#C7F869" d="M1.8,18.6c0,0,3.1,1.4,4.8,1.8c1.7,0.4,4.4,0.9,4.4,0.9s2.7,0.5,5,0.2s4.3-1.3,4.3-1.3s0.8-0.5,1.2-1.2
		s0.3-2,0.3-2s-0.4,1.3-1.8,2.2s-2.7,1.3-6.2,1.5C10.4,20.9,5.3,20.1,1.8,18.6z"/>
	<path fill="#C7F869" d="M20,6.6L21.7,3L21,6.4l0.8-0.3l0.7-0.6L23,5l0.1-0.5l0-0.4V0.8L23.4,0l-1,0.5c0,0-0.9,0.6-1.5,1.3
		s-0.6,0.8-0.6,0.8l-0.5,1c0,0-0.1,0.3-0.2,0.7c-0.1,0.4-0.1,1.1-0.1,1.1S19.4,6.2,20,6.6z"/>
	<path fill="#C7F869" d="M19.1,7.7l-2.9-1.2L19.6,7c0,0-0.1-1.1-1.6-1.6c0,0-2.9-0.3-4.4,0.8c0,0,1,1.1,3.5,2.1
		C17.1,8.3,17.9,8.6,19.1,7.7z"/>
</g>
<g id="text">
	<rect x="27.1" y="8.5" fill="none" width="100" height="30.4"/>
	<text transform="matrix(1 0 0 1 27.0834 25.5475)" font-family="'MyriadPro-Bold'" font-size="24" letter-spacing="-1">awerkow</text>
</g>
</svg>
